<mxfile host="app.diagrams.net" agent="Mozilla/5.0 (Windows NT 10.0; Win64; x64) AppleWebKit/537.36 (KHTML, like Gecko) Chrome/133.0.0.0 Safari/537.36 Edg/133.0.0.0" version="26.0.14" pages="2">
  <diagram name="ascon-block-diagram" id="VAtdKDIfWHteMQBcCz4_">
    <mxGraphModel dx="-522" dy="1338" grid="1" gridSize="10" guides="1" tooltips="1" connect="1" arrows="1" fold="1" page="1" pageScale="1" pageWidth="827" pageHeight="1169" math="0" shadow="0">
      <root>
        <mxCell id="0" />
        <mxCell id="1" parent="0" />
        <mxCell id="OJoczEmdPR2uCMiw0yD9-1" value="" style="group" vertex="1" connectable="0" parent="1">
          <mxGeometry x="1010" y="-20" width="1010" height="420" as="geometry" />
        </mxCell>
        <mxCell id="gBwU4EL3N3Z2B_soCgxr-2" value="" style="rounded=0;whiteSpace=wrap;html=1;strokeColor=none;fillColor=#F8F8FF;fontFamily=FiraCode-Regular;" parent="OJoczEmdPR2uCMiw0yD9-1" vertex="1">
          <mxGeometry x="140" width="720" height="420" as="geometry" />
        </mxCell>
        <mxCell id="gBwU4EL3N3Z2B_soCgxr-15" value="" style="rounded=1;whiteSpace=wrap;html=1;strokeColor=none;fillColor=#8BD6DF;fontStyle=1;arcSize=8;fontFamily=FiraCode-Regular;" parent="OJoczEmdPR2uCMiw0yD9-1" vertex="1">
          <mxGeometry x="280" y="160" width="255" height="210" as="geometry" />
        </mxCell>
        <mxCell id="gBwU4EL3N3Z2B_soCgxr-185" value="" style="shape=flexArrow;endArrow=classic;html=1;rounded=0;strokeColor=#666666;fillColor=#666666;startArrow=none;startSize=4;endSize=4;strokeWidth=0.1;width=5;startWidth=15;endWidth=15;fontFamily=FiraCode-Regular;startFill=0;" parent="OJoczEmdPR2uCMiw0yD9-1" edge="1">
          <mxGeometry width="50" height="50" relative="1" as="geometry">
            <mxPoint x="565.5" y="280" as="sourcePoint" />
            <mxPoint x="535" y="280" as="targetPoint" />
          </mxGeometry>
        </mxCell>
        <mxCell id="gBwU4EL3N3Z2B_soCgxr-16" value="&lt;font style=&quot;font-size: 15px;&quot;&gt;&lt;b style=&quot;&quot;&gt;Permutation&lt;/b&gt;&lt;/font&gt;" style="text;html=1;align=center;verticalAlign=middle;whiteSpace=wrap;rounded=0;fontFamily=FiraCode-Regular;" parent="OJoczEmdPR2uCMiw0yD9-1" vertex="1">
          <mxGeometry x="290" y="165" width="240" height="30" as="geometry" />
        </mxCell>
        <mxCell id="gBwU4EL3N3Z2B_soCgxr-119" value="" style="shape=flexArrow;endArrow=none;html=1;rounded=0;strokeColor=#666666;fillColor=#666666;startArrow=block;startSize=4;endSize=4;strokeWidth=0.1;width=5;startWidth=15;endWidth=15;startFill=0;entryX=0.5;entryY=0;entryDx=0;entryDy=0;fontFamily=FiraCode-Regular;" parent="OJoczEmdPR2uCMiw0yD9-1" target="gBwU4EL3N3Z2B_soCgxr-64" edge="1">
          <mxGeometry width="50" height="50" relative="1" as="geometry">
            <mxPoint x="407.4000000000001" y="302.5" as="sourcePoint" />
            <mxPoint x="407.6100000000001" y="250.5" as="targetPoint" />
          </mxGeometry>
        </mxCell>
        <mxCell id="gBwU4EL3N3Z2B_soCgxr-120" value="" style="shape=flexArrow;endArrow=none;html=1;rounded=0;strokeColor=#666666;fillColor=#666666;startArrow=block;startSize=4;endSize=4;strokeWidth=0.1;width=5;startWidth=15;endWidth=15;startFill=0;entryX=0.5;entryY=0;entryDx=0;entryDy=0;fontFamily=FiraCode-Regular;" parent="OJoczEmdPR2uCMiw0yD9-1" target="gBwU4EL3N3Z2B_soCgxr-63" edge="1">
          <mxGeometry width="50" height="50" relative="1" as="geometry">
            <mxPoint x="407.4000000000001" y="250" as="sourcePoint" />
            <mxPoint x="407.6100000000001" y="198" as="targetPoint" />
          </mxGeometry>
        </mxCell>
        <mxCell id="gBwU4EL3N3Z2B_soCgxr-63" value="&lt;font style=&quot;font-size: 15px; font-weight: normal;&quot;&gt;Addition Layer&lt;/font&gt;" style="rounded=1;whiteSpace=wrap;html=1;strokeColor=none;fillColor=#F9AD38;fontStyle=1;arcSize=8;fontFamily=FiraCode-Regular;fontColor=#000000;" parent="OJoczEmdPR2uCMiw0yD9-1" vertex="1">
          <mxGeometry x="322.5" y="200" width="170" height="30" as="geometry" />
        </mxCell>
        <mxCell id="gBwU4EL3N3Z2B_soCgxr-66" value="&lt;font style=&quot;font-size: 15px; font-weight: normal;&quot;&gt;Diffusion&amp;nbsp;Layer&lt;/font&gt;" style="rounded=1;whiteSpace=wrap;html=1;strokeColor=none;fillColor=#A786C5;fontStyle=1;arcSize=8;fontFamily=FiraCode-Regular;fontColor=#000000;" parent="OJoczEmdPR2uCMiw0yD9-1" vertex="1">
          <mxGeometry x="322.5" y="302.5" width="170" height="30" as="geometry" />
        </mxCell>
        <mxCell id="gBwU4EL3N3Z2B_soCgxr-75" value="" style="group;fontFamily=FiraCode-Regular;" parent="OJoczEmdPR2uCMiw0yD9-1" vertex="1" connectable="0">
          <mxGeometry x="560" y="160" width="255" height="210" as="geometry" />
        </mxCell>
        <mxCell id="gBwU4EL3N3Z2B_soCgxr-72" value="" style="rounded=1;whiteSpace=wrap;html=1;strokeColor=none;fillColor=#D4D4D2;fontStyle=1;arcSize=8;fontFamily=FiraCode-Regular;" parent="gBwU4EL3N3Z2B_soCgxr-75" vertex="1">
          <mxGeometry width="255" height="210" as="geometry" />
        </mxCell>
        <mxCell id="gBwU4EL3N3Z2B_soCgxr-73" value="&lt;font style=&quot;font-size: 15px;&quot;&gt;&lt;b style=&quot;&quot;&gt;Registers / Counters&lt;/b&gt;&lt;/font&gt;" style="text;html=1;align=center;verticalAlign=middle;whiteSpace=wrap;rounded=0;fontFamily=FiraCode-Regular;" parent="gBwU4EL3N3Z2B_soCgxr-75" vertex="1">
          <mxGeometry x="10" y="5" width="240" height="30" as="geometry" />
        </mxCell>
        <mxCell id="gBwU4EL3N3Z2B_soCgxr-80" value="Round&amp;nbsp;&lt;div&gt;Counter&lt;/div&gt;" style="rounded=1;whiteSpace=wrap;html=1;strokeColor=none;fillColor=#FFFFFF;fontStyle=0;arcSize=8;fontFamily=FiraCode-Regular;fontColor=#000000;" parent="gBwU4EL3N3Z2B_soCgxr-75" vertex="1">
          <mxGeometry x="30" y="55" width="80" height="45" as="geometry" />
        </mxCell>
        <mxCell id="gBwU4EL3N3Z2B_soCgxr-85" value="Block&amp;nbsp;&lt;div&gt;Counter&lt;/div&gt;" style="rounded=1;whiteSpace=wrap;html=1;strokeColor=none;fillColor=#FFFFFF;fontStyle=0;arcSize=8;fontFamily=FiraCode-Regular;fontColor=#000000;" parent="gBwU4EL3N3Z2B_soCgxr-75" vertex="1">
          <mxGeometry x="140" y="55" width="80" height="45" as="geometry" />
        </mxCell>
        <mxCell id="gBwU4EL3N3Z2B_soCgxr-87" value="State&amp;nbsp;&lt;div&gt;Register&lt;/div&gt;" style="rounded=1;whiteSpace=wrap;html=1;strokeColor=none;fillColor=#FFFFFF;fontStyle=0;arcSize=8;fontFamily=FiraCode-Regular;fontColor=#000000;" parent="gBwU4EL3N3Z2B_soCgxr-75" vertex="1">
          <mxGeometry x="87.5" y="135" width="80" height="45" as="geometry" />
        </mxCell>
        <mxCell id="gBwU4EL3N3Z2B_soCgxr-58" value="" style="triangle;whiteSpace=wrap;html=1;strokeColor=default;fillColor=#000000;fontFamily=FiraCode-Regular;" parent="gBwU4EL3N3Z2B_soCgxr-75" vertex="1">
          <mxGeometry x="0.5" y="67.25" width="15.38" height="20.5" as="geometry" />
        </mxCell>
        <mxCell id="gBwU4EL3N3Z2B_soCgxr-138" style="edgeStyle=orthogonalEdgeStyle;rounded=0;orthogonalLoop=1;jettySize=auto;html=1;exitX=0;exitY=0.25;exitDx=0;exitDy=0;startArrow=classic;startFill=1;endArrow=none;fontFamily=FiraCode-Regular;" parent="OJoczEmdPR2uCMiw0yD9-1" source="gBwU4EL3N3Z2B_soCgxr-3" edge="1">
          <mxGeometry relative="1" as="geometry">
            <mxPoint x="110" y="68.66666666666674" as="targetPoint" />
          </mxGeometry>
        </mxCell>
        <mxCell id="gBwU4EL3N3Z2B_soCgxr-139" style="edgeStyle=orthogonalEdgeStyle;rounded=0;orthogonalLoop=1;jettySize=auto;html=1;exitX=0;exitY=0.75;exitDx=0;exitDy=0;startArrow=classic;startFill=1;endArrow=none;fontFamily=FiraCode-Regular;" parent="OJoczEmdPR2uCMiw0yD9-1" source="gBwU4EL3N3Z2B_soCgxr-3" edge="1">
          <mxGeometry relative="1" as="geometry">
            <mxPoint x="110" y="103.66666666666674" as="targetPoint" />
          </mxGeometry>
        </mxCell>
        <mxCell id="gBwU4EL3N3Z2B_soCgxr-168" style="edgeStyle=orthogonalEdgeStyle;rounded=0;orthogonalLoop=1;jettySize=auto;html=1;fontFamily=FiraCode-Regular;" parent="OJoczEmdPR2uCMiw0yD9-1" edge="1">
          <mxGeometry relative="1" as="geometry">
            <mxPoint x="890.0000000000002" y="68.5" as="targetPoint" />
            <mxPoint x="814.5" y="68.5" as="sourcePoint" />
          </mxGeometry>
        </mxCell>
        <mxCell id="gBwU4EL3N3Z2B_soCgxr-169" style="edgeStyle=orthogonalEdgeStyle;rounded=0;orthogonalLoop=1;jettySize=auto;html=1;exitX=1;exitY=0.75;exitDx=0;exitDy=0;fontFamily=FiraCode-Regular;" parent="OJoczEmdPR2uCMiw0yD9-1" source="gBwU4EL3N3Z2B_soCgxr-3" edge="1">
          <mxGeometry relative="1" as="geometry">
            <mxPoint x="890.0000000000002" y="103.55555555555543" as="targetPoint" />
          </mxGeometry>
        </mxCell>
        <mxCell id="gBwU4EL3N3Z2B_soCgxr-3" value="&lt;font style=&quot;font-size: 15px; color: rgb(255, 255, 255);&quot;&gt;Finite State Machine&lt;/font&gt;" style="rounded=1;whiteSpace=wrap;html=1;strokeColor=none;fillColor=#967EBF;fontStyle=1;arcSize=8;fontFamily=FiraCode-Regular;" parent="OJoczEmdPR2uCMiw0yD9-1" vertex="1">
          <mxGeometry x="279.5" y="51" width="535" height="70" as="geometry" />
        </mxCell>
        <mxCell id="gBwU4EL3N3Z2B_soCgxr-70" value="" style="shape=flexArrow;endArrow=classic;html=1;rounded=0;strokeColor=#666666;fillColor=#666666;startArrow=block;startSize=4;endSize=4;strokeWidth=0.1;width=5;startWidth=15;endWidth=15;fontFamily=FiraCode-Regular;" parent="OJoczEmdPR2uCMiw0yD9-1" edge="1">
          <mxGeometry width="50" height="50" relative="1" as="geometry">
            <mxPoint x="687.3299999999999" y="120" as="sourcePoint" />
            <mxPoint x="687.3299999999999" y="160" as="targetPoint" />
          </mxGeometry>
        </mxCell>
        <mxCell id="gBwU4EL3N3Z2B_soCgxr-93" value="" style="triangle;whiteSpace=wrap;html=1;strokeColor=default;fillColor=#000000;fontFamily=FiraCode-Regular;" parent="OJoczEmdPR2uCMiw0yD9-1" vertex="1">
          <mxGeometry x="280.5" y="75.75" width="14" height="20.5" as="geometry" />
        </mxCell>
        <mxCell id="gBwU4EL3N3Z2B_soCgxr-64" value="&lt;font style=&quot;font-size: 15px; font-weight: normal;&quot;&gt;Substitution Layer&lt;/font&gt;" style="rounded=1;whiteSpace=wrap;html=1;strokeColor=none;fillColor=#DF948B;fontStyle=1;arcSize=8;fontFamily=FiraCode-Regular;fontColor=#000000;" parent="OJoczEmdPR2uCMiw0yD9-1" vertex="1">
          <mxGeometry x="322.5" y="250" width="170" height="30" as="geometry" />
        </mxCell>
        <mxCell id="gBwU4EL3N3Z2B_soCgxr-96" value="" style="shape=flexArrow;endArrow=none;html=1;rounded=0;strokeColor=#666666;fillColor=#666666;startArrow=block;startSize=4;endSize=4;strokeWidth=0.1;width=5;startWidth=15;endWidth=15;startFill=0;exitX=0;exitY=0.5;exitDx=0;exitDy=0;fontFamily=FiraCode-Regular;" parent="OJoczEmdPR2uCMiw0yD9-1" source="gBwU4EL3N3Z2B_soCgxr-87" edge="1">
          <mxGeometry width="50" height="50" relative="1" as="geometry">
            <mxPoint x="692.5" y="317.21000000000004" as="sourcePoint" />
            <mxPoint x="492.5" y="317.21000000000004" as="targetPoint" />
          </mxGeometry>
        </mxCell>
        <mxCell id="gBwU4EL3N3Z2B_soCgxr-98" value="" style="group;fontFamily=FiraCode-Regular;" parent="OJoczEmdPR2uCMiw0yD9-1" vertex="1" connectable="0">
          <mxGeometry x="532" y="312" width="30" height="30" as="geometry" />
        </mxCell>
        <mxCell id="gBwU4EL3N3Z2B_soCgxr-99" value="320" style="text;html=1;align=center;verticalAlign=middle;whiteSpace=wrap;rounded=0;fontFamily=FiraCode-Regular;" parent="gBwU4EL3N3Z2B_soCgxr-98" vertex="1">
          <mxGeometry y="10" width="30" height="20" as="geometry" />
        </mxCell>
        <mxCell id="gBwU4EL3N3Z2B_soCgxr-100" value="" style="endArrow=none;html=1;rounded=0;fontFamily=FiraCode-Regular;strokeWidth=3;strokeColor=#000000;endSize=7;startSize=7;jumpSize=7;exitX=0.5;exitY=0;exitDx=0;exitDy=0;" parent="gBwU4EL3N3Z2B_soCgxr-98" edge="1">
          <mxGeometry width="50" height="50" relative="1" as="geometry">
            <mxPoint x="12.5" y="10" as="sourcePoint" />
            <mxPoint x="17.5" as="targetPoint" />
          </mxGeometry>
        </mxCell>
        <mxCell id="gBwU4EL3N3Z2B_soCgxr-110" value="" style="shape=trapezoid;perimeter=trapezoidPerimeter;whiteSpace=wrap;html=1;fixedSize=1;rotation=90;size=9;fillColor=none;strokeColor=#666666;strokeWidth=2;fontFamily=FiraCode-Regular;" parent="OJoczEmdPR2uCMiw0yD9-1" vertex="1">
          <mxGeometry x="201" y="200" width="60" height="30" as="geometry" />
        </mxCell>
        <mxCell id="gBwU4EL3N3Z2B_soCgxr-111" value="" style="shape=flexArrow;endArrow=none;html=1;rounded=0;strokeColor=#666666;fillColor=#666666;startArrow=block;startSize=4;endSize=4;strokeWidth=0.1;width=5;startWidth=15;endWidth=15;startFill=0;exitX=0;exitY=0.5;exitDx=0;exitDy=0;entryX=0.5;entryY=0;entryDx=0;entryDy=0;fontFamily=FiraCode-Regular;" parent="OJoczEmdPR2uCMiw0yD9-1" source="gBwU4EL3N3Z2B_soCgxr-63" target="gBwU4EL3N3Z2B_soCgxr-110" edge="1">
          <mxGeometry width="50" height="50" relative="1" as="geometry">
            <mxPoint x="401.5" y="210.4" as="sourcePoint" />
            <mxPoint x="246" y="209.61000000000004" as="targetPoint" />
          </mxGeometry>
        </mxCell>
        <mxCell id="gBwU4EL3N3Z2B_soCgxr-116" value="" style="group;fontFamily=FiraCode-Regular;" parent="OJoczEmdPR2uCMiw0yD9-1" vertex="1" connectable="0">
          <mxGeometry x="250" y="210" width="30" height="30" as="geometry" />
        </mxCell>
        <mxCell id="gBwU4EL3N3Z2B_soCgxr-117" value="320" style="text;html=1;align=center;verticalAlign=middle;whiteSpace=wrap;rounded=0;fontFamily=FiraCode-Regular;" parent="gBwU4EL3N3Z2B_soCgxr-116" vertex="1">
          <mxGeometry y="10" width="30" height="20" as="geometry" />
        </mxCell>
        <mxCell id="gBwU4EL3N3Z2B_soCgxr-118" value="" style="endArrow=none;html=1;rounded=0;fontFamily=FiraCode-Regular;strokeWidth=3;strokeColor=#000000;endSize=7;startSize=7;jumpSize=7;exitX=0.5;exitY=0;exitDx=0;exitDy=0;" parent="gBwU4EL3N3Z2B_soCgxr-116" edge="1">
          <mxGeometry width="50" height="50" relative="1" as="geometry">
            <mxPoint x="12.5" y="10" as="sourcePoint" />
            <mxPoint x="17.5" as="targetPoint" />
          </mxGeometry>
        </mxCell>
        <mxCell id="gBwU4EL3N3Z2B_soCgxr-143" value="i_data_valid" style="text;html=1;align=right;verticalAlign=middle;whiteSpace=wrap;rounded=0;fontFamily=FiraCode-Regular;" parent="OJoczEmdPR2uCMiw0yD9-1" vertex="1">
          <mxGeometry y="94" width="100" height="20" as="geometry" />
        </mxCell>
        <mxCell id="gBwU4EL3N3Z2B_soCgxr-145" value="i_start" style="text;html=1;align=right;verticalAlign=middle;whiteSpace=wrap;rounded=0;fontFamily=FiraCode-Regular;" parent="OJoczEmdPR2uCMiw0yD9-1" vertex="1">
          <mxGeometry y="58.75" width="100" height="20" as="geometry" />
        </mxCell>
        <mxCell id="gBwU4EL3N3Z2B_soCgxr-135" value="" style="shape=flexArrow;endArrow=classic;html=1;rounded=0;strokeColor=#666666;fillColor=#666666;startArrow=none;startSize=4;endSize=4;strokeWidth=0.1;width=5;startWidth=15;endWidth=15;startFill=0;exitX=0.5;exitY=1;exitDx=0;exitDy=0;entryX=0.75;entryY=1;entryDx=0;entryDy=0;fontFamily=FiraCode-Regular;" parent="OJoczEmdPR2uCMiw0yD9-1" source="gBwU4EL3N3Z2B_soCgxr-87" target="gBwU4EL3N3Z2B_soCgxr-110" edge="1">
          <mxGeometry width="50" height="50" relative="1" as="geometry">
            <mxPoint x="681" y="340" as="sourcePoint" />
            <mxPoint x="381" y="280" as="targetPoint" />
            <Array as="points">
              <mxPoint x="688" y="400" />
              <mxPoint x="180" y="400" />
              <mxPoint x="180" y="230" />
            </Array>
          </mxGeometry>
        </mxCell>
        <mxCell id="gBwU4EL3N3Z2B_soCgxr-167" value="" style="shape=flexArrow;endArrow=none;html=1;rounded=0;strokeColor=#666666;fillColor=#666666;startArrow=block;startSize=4;endSize=4;strokeWidth=0.1;width=5;startWidth=15;endWidth=15;startFill=0;exitX=0;exitY=0.5;exitDx=0;exitDy=0;fontFamily=FiraCode-Regular;" parent="OJoczEmdPR2uCMiw0yD9-1" edge="1">
          <mxGeometry width="50" height="50" relative="1" as="geometry">
            <mxPoint x="217" y="206.21" as="sourcePoint" />
            <mxPoint x="160" y="206" as="targetPoint" />
          </mxGeometry>
        </mxCell>
        <mxCell id="gBwU4EL3N3Z2B_soCgxr-147" value="" style="shape=flexArrow;endArrow=none;html=1;rounded=0;strokeColor=#D4D4D2;fillColor=#D4D4D2;startArrow=block;startSize=4;endSize=4;strokeWidth=0.1;width=5;startWidth=15;endWidth=15;startFill=0;fontFamily=FiraCode-Regular;" parent="OJoczEmdPR2uCMiw0yD9-1" edge="1">
          <mxGeometry width="50" height="50" relative="1" as="geometry">
            <mxPoint x="158" y="324" as="sourcePoint" />
            <mxPoint x="110" y="324" as="targetPoint" />
          </mxGeometry>
        </mxCell>
        <mxCell id="gBwU4EL3N3Z2B_soCgxr-149" value="i_nonce" style="text;html=1;align=right;verticalAlign=middle;whiteSpace=wrap;rounded=0;container=0;fontFamily=FiraCode-Regular;" parent="OJoczEmdPR2uCMiw0yD9-1" vertex="1">
          <mxGeometry y="317.5" width="100" height="20" as="geometry" />
        </mxCell>
        <mxCell id="gBwU4EL3N3Z2B_soCgxr-159" value="128" style="text;html=1;align=center;verticalAlign=middle;whiteSpace=wrap;rounded=0;fontFamily=FiraCode-Regular;container=0;" parent="OJoczEmdPR2uCMiw0yD9-1" vertex="1">
          <mxGeometry x="110" y="329" width="30" height="20" as="geometry" />
        </mxCell>
        <mxCell id="gBwU4EL3N3Z2B_soCgxr-160" value="" style="endArrow=none;html=1;rounded=0;fontFamily=FiraCode-Regular;strokeWidth=3;strokeColor=#000000;endSize=7;startSize=7;jumpSize=7;exitX=0.5;exitY=0;exitDx=0;exitDy=0;" parent="OJoczEmdPR2uCMiw0yD9-1" edge="1">
          <mxGeometry width="50" height="50" relative="1" as="geometry">
            <mxPoint x="122.5" y="329" as="sourcePoint" />
            <mxPoint x="127.5" y="319" as="targetPoint" />
          </mxGeometry>
        </mxCell>
        <mxCell id="gBwU4EL3N3Z2B_soCgxr-146" value="" style="shape=flexArrow;endArrow=none;html=1;rounded=0;strokeColor=#D4D4D2;fillColor=#D4D4D2;startArrow=block;startSize=4;endSize=4;strokeWidth=0.1;width=5;startWidth=15;endWidth=15;startFill=0;fontFamily=FiraCode-Regular;" parent="OJoczEmdPR2uCMiw0yD9-1" edge="1">
          <mxGeometry width="50" height="50" relative="1" as="geometry">
            <mxPoint x="158" y="265.5" as="sourcePoint" />
            <mxPoint x="110" y="265.5" as="targetPoint" />
          </mxGeometry>
        </mxCell>
        <mxCell id="gBwU4EL3N3Z2B_soCgxr-148" value="i_key" style="text;html=1;align=right;verticalAlign=middle;whiteSpace=wrap;rounded=0;container=0;fontFamily=FiraCode-Regular;" parent="OJoczEmdPR2uCMiw0yD9-1" vertex="1">
          <mxGeometry y="258.5" width="100" height="20" as="geometry" />
        </mxCell>
        <mxCell id="gBwU4EL3N3Z2B_soCgxr-151" value="128" style="text;html=1;align=center;verticalAlign=middle;whiteSpace=wrap;rounded=0;fontFamily=FiraCode-Regular;container=0;" parent="OJoczEmdPR2uCMiw0yD9-1" vertex="1">
          <mxGeometry x="110" y="270.5" width="30" height="20" as="geometry" />
        </mxCell>
        <mxCell id="gBwU4EL3N3Z2B_soCgxr-152" value="" style="endArrow=none;html=1;rounded=0;fontFamily=FiraCode-Regular;strokeWidth=3;strokeColor=#000000;endSize=7;startSize=7;jumpSize=7;exitX=0.5;exitY=0;exitDx=0;exitDy=0;" parent="OJoczEmdPR2uCMiw0yD9-1" edge="1">
          <mxGeometry width="50" height="50" relative="1" as="geometry">
            <mxPoint x="122.5" y="270.5" as="sourcePoint" />
            <mxPoint x="127.5" y="260.5" as="targetPoint" />
          </mxGeometry>
        </mxCell>
        <mxCell id="gBwU4EL3N3Z2B_soCgxr-129" value="" style="shape=flexArrow;endArrow=none;html=1;rounded=0;strokeColor=#D4D4D2;fillColor=#D4D4D2;startArrow=block;startSize=4;endSize=4;strokeWidth=0.1;width=5;startWidth=15;endWidth=15;startFill=0;fontFamily=FiraCode-Regular;" parent="OJoczEmdPR2uCMiw0yD9-1" edge="1">
          <mxGeometry width="50" height="50" relative="1" as="geometry">
            <mxPoint x="158" y="207" as="sourcePoint" />
            <mxPoint x="110" y="207" as="targetPoint" />
          </mxGeometry>
        </mxCell>
        <mxCell id="gBwU4EL3N3Z2B_soCgxr-144" value="i_data" style="text;html=1;align=right;verticalAlign=middle;whiteSpace=wrap;rounded=0;container=0;fontFamily=FiraCode-Regular;" parent="OJoczEmdPR2uCMiw0yD9-1" vertex="1">
          <mxGeometry y="200" width="100" height="20" as="geometry" />
        </mxCell>
        <mxCell id="gBwU4EL3N3Z2B_soCgxr-166" value="" style="line;strokeWidth=2;direction=south;html=1;container=0;fontFamily=FiraCode-Regular;" parent="OJoczEmdPR2uCMiw0yD9-1" vertex="1">
          <mxGeometry x="154" y="189" width="10" height="160" as="geometry" />
        </mxCell>
        <mxCell id="gBwU4EL3N3Z2B_soCgxr-131" value="64" style="text;html=1;align=center;verticalAlign=middle;whiteSpace=wrap;rounded=0;fontFamily=FiraCode-Regular;container=0;" parent="OJoczEmdPR2uCMiw0yD9-1" vertex="1">
          <mxGeometry x="110" y="212" width="30" height="20" as="geometry" />
        </mxCell>
        <mxCell id="gBwU4EL3N3Z2B_soCgxr-132" value="" style="endArrow=none;html=1;rounded=0;fontFamily=FiraCode-Regular;strokeWidth=3;strokeColor=#000000;endSize=7;startSize=7;jumpSize=7;exitX=0.5;exitY=0;exitDx=0;exitDy=0;" parent="OJoczEmdPR2uCMiw0yD9-1" edge="1">
          <mxGeometry width="50" height="50" relative="1" as="geometry">
            <mxPoint x="122.5" y="212" as="sourcePoint" />
            <mxPoint x="127.5" y="202" as="targetPoint" />
          </mxGeometry>
        </mxCell>
        <mxCell id="gBwU4EL3N3Z2B_soCgxr-171" value="o_cipher_valid" style="text;html=1;align=left;verticalAlign=middle;whiteSpace=wrap;rounded=0;fontFamily=FiraCode-Regular;" parent="OJoczEmdPR2uCMiw0yD9-1" vertex="1">
          <mxGeometry x="910" y="58.75" width="100" height="20" as="geometry" />
        </mxCell>
        <mxCell id="gBwU4EL3N3Z2B_soCgxr-172" value="o_done" style="text;html=1;align=left;verticalAlign=middle;whiteSpace=wrap;rounded=0;fontFamily=FiraCode-Regular;" parent="OJoczEmdPR2uCMiw0yD9-1" vertex="1">
          <mxGeometry x="910" y="94" width="100" height="20" as="geometry" />
        </mxCell>
        <mxCell id="gBwU4EL3N3Z2B_soCgxr-173" value="" style="shape=flexArrow;endArrow=none;html=1;rounded=0;strokeColor=#666666;fillColor=#666666;startArrow=block;startSize=4;endSize=4;strokeWidth=0.1;width=5;startWidth=15;endWidth=15;startFill=0;fontFamily=FiraCode-Regular;" parent="OJoczEmdPR2uCMiw0yD9-1" edge="1">
          <mxGeometry width="50" height="50" relative="1" as="geometry">
            <mxPoint x="890" y="231" as="sourcePoint" />
            <mxPoint x="815" y="231.21000000000004" as="targetPoint" />
          </mxGeometry>
        </mxCell>
        <mxCell id="gBwU4EL3N3Z2B_soCgxr-174" value="" style="shape=flexArrow;endArrow=none;html=1;rounded=0;strokeColor=#666666;fillColor=#666666;startArrow=block;startSize=4;endSize=4;strokeWidth=0.1;width=5;startWidth=15;endWidth=15;startFill=0;fontFamily=FiraCode-Regular;" parent="OJoczEmdPR2uCMiw0yD9-1" edge="1">
          <mxGeometry width="50" height="50" relative="1" as="geometry">
            <mxPoint x="890" y="317" as="sourcePoint" />
            <mxPoint x="814.5" y="316.71000000000004" as="targetPoint" />
          </mxGeometry>
        </mxCell>
        <mxCell id="gBwU4EL3N3Z2B_soCgxr-175" value="o_cipher" style="text;html=1;align=left;verticalAlign=middle;whiteSpace=wrap;rounded=0;fontFamily=FiraCode-Regular;" parent="OJoczEmdPR2uCMiw0yD9-1" vertex="1">
          <mxGeometry x="910" y="220" width="100" height="20" as="geometry" />
        </mxCell>
        <mxCell id="gBwU4EL3N3Z2B_soCgxr-176" value="o_tag" style="text;html=1;align=left;verticalAlign=middle;whiteSpace=wrap;rounded=0;fontFamily=FiraCode-Regular;" parent="OJoczEmdPR2uCMiw0yD9-1" vertex="1">
          <mxGeometry x="910" y="307.5" width="100" height="20" as="geometry" />
        </mxCell>
        <mxCell id="gBwU4EL3N3Z2B_soCgxr-177" value="Ascon128 Core" style="text;html=1;align=center;verticalAlign=middle;whiteSpace=wrap;rounded=0;fontSize=16;fontStyle=1;fontFamily=FiraCode-Regular;" parent="OJoczEmdPR2uCMiw0yD9-1" vertex="1">
          <mxGeometry x="704" y="10" width="156" height="30" as="geometry" />
        </mxCell>
        <mxCell id="gBwU4EL3N3Z2B_soCgxr-178" value="" style="shape=flexArrow;endArrow=classic;html=1;rounded=0;strokeColor=#666666;fillColor=#666666;startArrow=block;startSize=4;endSize=4;strokeWidth=0.1;width=5;startWidth=15;endWidth=15;fontFamily=FiraCode-Regular;" parent="OJoczEmdPR2uCMiw0yD9-1" edge="1">
          <mxGeometry width="50" height="50" relative="1" as="geometry">
            <mxPoint x="407.30999999999995" y="120" as="sourcePoint" />
            <mxPoint x="407.30999999999995" y="160" as="targetPoint" />
          </mxGeometry>
        </mxCell>
        <mxCell id="gBwU4EL3N3Z2B_soCgxr-179" value="" style="group;fontFamily=FiraCode-Regular;" parent="OJoczEmdPR2uCMiw0yD9-1" vertex="1" connectable="0">
          <mxGeometry x="823" y="311" width="30" height="30" as="geometry" />
        </mxCell>
        <mxCell id="gBwU4EL3N3Z2B_soCgxr-180" value="128" style="text;html=1;align=center;verticalAlign=middle;whiteSpace=wrap;rounded=0;fontFamily=FiraCode-Regular;" parent="gBwU4EL3N3Z2B_soCgxr-179" vertex="1">
          <mxGeometry y="10" width="30" height="20" as="geometry" />
        </mxCell>
        <mxCell id="gBwU4EL3N3Z2B_soCgxr-181" value="" style="endArrow=none;html=1;rounded=0;fontFamily=FiraCode-Regular;strokeWidth=3;strokeColor=#000000;endSize=7;startSize=7;jumpSize=7;exitX=0.5;exitY=0;exitDx=0;exitDy=0;" parent="gBwU4EL3N3Z2B_soCgxr-179" edge="1">
          <mxGeometry width="50" height="50" relative="1" as="geometry">
            <mxPoint x="12.5" y="10" as="sourcePoint" />
            <mxPoint x="17.5" as="targetPoint" />
          </mxGeometry>
        </mxCell>
        <mxCell id="gBwU4EL3N3Z2B_soCgxr-182" value="" style="group;fontFamily=FiraCode-Regular;" parent="OJoczEmdPR2uCMiw0yD9-1" vertex="1" connectable="0">
          <mxGeometry x="823" y="227" width="30" height="30" as="geometry" />
        </mxCell>
        <mxCell id="gBwU4EL3N3Z2B_soCgxr-183" value="64" style="text;html=1;align=center;verticalAlign=middle;whiteSpace=wrap;rounded=0;fontFamily=FiraCode-Regular;" parent="gBwU4EL3N3Z2B_soCgxr-182" vertex="1">
          <mxGeometry y="10" width="30" height="20" as="geometry" />
        </mxCell>
        <mxCell id="gBwU4EL3N3Z2B_soCgxr-184" value="" style="endArrow=none;html=1;rounded=0;fontFamily=FiraCode-Regular;strokeWidth=3;strokeColor=#000000;endSize=7;startSize=7;jumpSize=7;exitX=0.5;exitY=0;exitDx=0;exitDy=0;" parent="gBwU4EL3N3Z2B_soCgxr-182" edge="1">
          <mxGeometry width="50" height="50" relative="1" as="geometry">
            <mxPoint x="12.5" y="10" as="sourcePoint" />
            <mxPoint x="17.5" as="targetPoint" />
          </mxGeometry>
        </mxCell>
      </root>
    </mxGraphModel>
  </diagram>
  <diagram id="nYkN1dH1EL-iNkxycQNO" name="encryption">
    <mxGraphModel dx="36" dy="479" grid="1" gridSize="10" guides="1" tooltips="1" connect="1" arrows="1" fold="1" page="1" pageScale="1" pageWidth="827" pageHeight="1169" math="0" shadow="0">
      <root>
        <mxCell id="0" />
        <mxCell id="1" parent="0" />
        <mxCell id="0VzW3mdC1sywO2AmrKTB-140" value="" style="group" vertex="1" connectable="0" parent="1">
          <mxGeometry x="1211" y="160" width="864" height="280" as="geometry" />
        </mxCell>
        <mxCell id="ytDnAZ9jMwG_x9aCp5TH-10" style="edgeStyle=orthogonalEdgeStyle;rounded=0;orthogonalLoop=1;jettySize=auto;html=1;exitX=1;exitY=0.75;exitDx=0;exitDy=0;fontFamily=FiraCode-Regular;" edge="1" parent="0VzW3mdC1sywO2AmrKTB-140" source="ytDnAZ9jMwG_x9aCp5TH-1">
          <mxGeometry relative="1" as="geometry">
            <mxPoint x="139" y="160" as="targetPoint" />
          </mxGeometry>
        </mxCell>
        <mxCell id="ytDnAZ9jMwG_x9aCp5TH-17" style="edgeStyle=orthogonalEdgeStyle;rounded=0;orthogonalLoop=1;jettySize=auto;html=1;exitX=1;exitY=0.25;exitDx=0;exitDy=0;entryX=0;entryY=0.5;entryDx=0;entryDy=0;fontFamily=FiraCode-Regular;" edge="1" parent="0VzW3mdC1sywO2AmrKTB-140" source="ytDnAZ9jMwG_x9aCp5TH-1" target="ytDnAZ9jMwG_x9aCp5TH-13">
          <mxGeometry relative="1" as="geometry" />
        </mxCell>
        <mxCell id="0VzW3mdC1sywO2AmrKTB-17" style="edgeStyle=orthogonalEdgeStyle;rounded=0;orthogonalLoop=1;jettySize=auto;html=1;exitX=0;exitY=0.75;exitDx=0;exitDy=0;startArrow=classic;startFill=1;endArrow=none;fontFamily=FiraCode-Regular;" edge="1" parent="0VzW3mdC1sywO2AmrKTB-140" source="ytDnAZ9jMwG_x9aCp5TH-1">
          <mxGeometry relative="1" as="geometry">
            <mxPoint x="29" y="160.07407407407402" as="targetPoint" />
          </mxGeometry>
        </mxCell>
        <mxCell id="ytDnAZ9jMwG_x9aCp5TH-1" value="Ascon-p[12]" style="rounded=1;whiteSpace=wrap;html=1;strokeColor=default;fillColor=#FFFFFF;fontStyle=0;arcSize=8;fontFamily=FiraCode-Regular;fontColor=#000000;horizontal=0;" vertex="1" parent="0VzW3mdC1sywO2AmrKTB-140">
          <mxGeometry x="63" y="40" width="60" height="160" as="geometry" />
        </mxCell>
        <mxCell id="0VzW3mdC1sywO2AmrKTB-46" style="edgeStyle=orthogonalEdgeStyle;rounded=0;orthogonalLoop=1;jettySize=auto;html=1;exitX=1;exitY=0.25;exitDx=0;exitDy=0;entryX=0;entryY=0.5;entryDx=0;entryDy=0;fontFamily=FiraCode-Regular;" edge="1" parent="0VzW3mdC1sywO2AmrKTB-140" source="ytDnAZ9jMwG_x9aCp5TH-4" target="0VzW3mdC1sywO2AmrKTB-37">
          <mxGeometry relative="1" as="geometry" />
        </mxCell>
        <mxCell id="ytDnAZ9jMwG_x9aCp5TH-4" value="Ascon-p[6]" style="rounded=1;whiteSpace=wrap;html=1;strokeColor=default;fillColor=#FFFFFF;fontStyle=0;arcSize=8;fontFamily=FiraCode-Regular;fontColor=#000000;horizontal=0;" vertex="1" parent="0VzW3mdC1sywO2AmrKTB-140">
          <mxGeometry x="229" y="40" width="60" height="160" as="geometry" />
        </mxCell>
        <mxCell id="ytDnAZ9jMwG_x9aCp5TH-5" value="" style="endArrow=none;html=1;rounded=0;dashed=1;strokeColor=#4D4D4D;fontFamily=FiraCode-Regular;strokeWidth=2;" edge="1" parent="0VzW3mdC1sywO2AmrKTB-140">
          <mxGeometry width="50" height="50" relative="1" as="geometry">
            <mxPoint x="173" y="230" as="sourcePoint" />
            <mxPoint x="173" y="10" as="targetPoint" />
          </mxGeometry>
        </mxCell>
        <mxCell id="ytDnAZ9jMwG_x9aCp5TH-9" value="" style="group;fontFamily=FiraCode-Regular;" vertex="1" connectable="0" parent="0VzW3mdC1sywO2AmrKTB-140">
          <mxGeometry x="139" y="155" width="10" height="10" as="geometry" />
        </mxCell>
        <mxCell id="0VzW3mdC1sywO2AmrKTB-11" style="edgeStyle=orthogonalEdgeStyle;rounded=0;orthogonalLoop=1;jettySize=auto;html=1;startArrow=classic;startFill=1;endArrow=none;fontFamily=FiraCode-Regular;" edge="1" parent="ytDnAZ9jMwG_x9aCp5TH-9" source="ytDnAZ9jMwG_x9aCp5TH-6">
          <mxGeometry relative="1" as="geometry">
            <mxPoint x="5" y="65" as="targetPoint" />
          </mxGeometry>
        </mxCell>
        <mxCell id="ytDnAZ9jMwG_x9aCp5TH-6" value="" style="ellipse;whiteSpace=wrap;html=1;aspect=fixed;fontFamily=FiraCode-Regular;" vertex="1" parent="ytDnAZ9jMwG_x9aCp5TH-9">
          <mxGeometry width="10" height="10" as="geometry" />
        </mxCell>
        <mxCell id="ytDnAZ9jMwG_x9aCp5TH-7" value="" style="endArrow=none;html=1;rounded=0;entryX=0.5;entryY=0;entryDx=0;entryDy=0;exitX=0.5;exitY=1;exitDx=0;exitDy=0;fontFamily=FiraCode-Regular;" edge="1" parent="ytDnAZ9jMwG_x9aCp5TH-9" source="ytDnAZ9jMwG_x9aCp5TH-6" target="ytDnAZ9jMwG_x9aCp5TH-6">
          <mxGeometry width="50" height="50" relative="1" as="geometry">
            <mxPoint y="10" as="sourcePoint" />
            <mxPoint x="10" as="targetPoint" />
          </mxGeometry>
        </mxCell>
        <mxCell id="ytDnAZ9jMwG_x9aCp5TH-8" value="" style="endArrow=none;html=1;rounded=0;exitX=0.5;exitY=1;exitDx=0;exitDy=0;entryX=1;entryY=0.5;entryDx=0;entryDy=0;fontFamily=FiraCode-Regular;" edge="1" parent="ytDnAZ9jMwG_x9aCp5TH-9" target="ytDnAZ9jMwG_x9aCp5TH-6">
          <mxGeometry width="50" height="50" relative="1" as="geometry">
            <mxPoint y="4.970000000000027" as="sourcePoint" />
            <mxPoint x="5" y="4.970000000000027" as="targetPoint" />
          </mxGeometry>
        </mxCell>
        <mxCell id="ytDnAZ9jMwG_x9aCp5TH-11" style="edgeStyle=orthogonalEdgeStyle;rounded=0;orthogonalLoop=1;jettySize=auto;html=1;entryX=0;entryY=0.75;entryDx=0;entryDy=0;fontFamily=FiraCode-Regular;" edge="1" parent="0VzW3mdC1sywO2AmrKTB-140" source="ytDnAZ9jMwG_x9aCp5TH-6" target="ytDnAZ9jMwG_x9aCp5TH-4">
          <mxGeometry relative="1" as="geometry" />
        </mxCell>
        <mxCell id="ytDnAZ9jMwG_x9aCp5TH-12" value="" style="group;fontFamily=FiraCode-Regular;" vertex="1" connectable="0" parent="0VzW3mdC1sywO2AmrKTB-140">
          <mxGeometry x="199" y="75" width="10" height="10" as="geometry" />
        </mxCell>
        <mxCell id="ytDnAZ9jMwG_x9aCp5TH-13" value="" style="ellipse;whiteSpace=wrap;html=1;aspect=fixed;fontFamily=FiraCode-Regular;" vertex="1" parent="ytDnAZ9jMwG_x9aCp5TH-12">
          <mxGeometry width="10" height="10" as="geometry" />
        </mxCell>
        <mxCell id="ytDnAZ9jMwG_x9aCp5TH-14" value="" style="endArrow=none;html=1;rounded=0;entryX=0.5;entryY=0;entryDx=0;entryDy=0;exitX=0.5;exitY=1;exitDx=0;exitDy=0;fontFamily=FiraCode-Regular;" edge="1" parent="ytDnAZ9jMwG_x9aCp5TH-12" source="ytDnAZ9jMwG_x9aCp5TH-13" target="ytDnAZ9jMwG_x9aCp5TH-13">
          <mxGeometry width="50" height="50" relative="1" as="geometry">
            <mxPoint y="10" as="sourcePoint" />
            <mxPoint x="10" as="targetPoint" />
          </mxGeometry>
        </mxCell>
        <mxCell id="ytDnAZ9jMwG_x9aCp5TH-15" value="" style="endArrow=none;html=1;rounded=0;exitX=0.5;exitY=1;exitDx=0;exitDy=0;entryX=1;entryY=0.5;entryDx=0;entryDy=0;fontFamily=FiraCode-Regular;" edge="1" parent="ytDnAZ9jMwG_x9aCp5TH-12" target="ytDnAZ9jMwG_x9aCp5TH-13">
          <mxGeometry width="50" height="50" relative="1" as="geometry">
            <mxPoint y="4.970000000000027" as="sourcePoint" />
            <mxPoint x="5" y="4.970000000000027" as="targetPoint" />
          </mxGeometry>
        </mxCell>
        <mxCell id="ytDnAZ9jMwG_x9aCp5TH-16" style="edgeStyle=orthogonalEdgeStyle;rounded=0;orthogonalLoop=1;jettySize=auto;html=1;exitX=1;exitY=0.5;exitDx=0;exitDy=0;entryX=0;entryY=0.25;entryDx=0;entryDy=0;fontFamily=FiraCode-Regular;" edge="1" parent="0VzW3mdC1sywO2AmrKTB-140" source="ytDnAZ9jMwG_x9aCp5TH-13" target="ytDnAZ9jMwG_x9aCp5TH-4">
          <mxGeometry relative="1" as="geometry" />
        </mxCell>
        <mxCell id="0VzW3mdC1sywO2AmrKTB-2" value="" style="group;fontFamily=FiraCode-Regular;fontColor=#666666;" vertex="1" connectable="0" parent="0VzW3mdC1sywO2AmrKTB-140">
          <mxGeometry x="189" y="155" width="30" height="30" as="geometry" />
        </mxCell>
        <mxCell id="0VzW3mdC1sywO2AmrKTB-3" value="&lt;font style=&quot;color: rgb(102, 102, 102);&quot;&gt;256&lt;/font&gt;" style="text;html=1;align=center;verticalAlign=middle;whiteSpace=wrap;rounded=0;fontFamily=FiraCode-Regular;" vertex="1" parent="0VzW3mdC1sywO2AmrKTB-2">
          <mxGeometry y="10" width="30" height="20" as="geometry" />
        </mxCell>
        <mxCell id="0VzW3mdC1sywO2AmrKTB-4" value="" style="endArrow=none;html=1;rounded=0;fontFamily=FiraCode-Regular;strokeWidth=1;strokeColor=#666666;endSize=7;startSize=7;jumpSize=7;exitX=0.5;exitY=0;exitDx=0;exitDy=0;" edge="1" parent="0VzW3mdC1sywO2AmrKTB-2">
          <mxGeometry width="50" height="50" relative="1" as="geometry">
            <mxPoint x="12.5" y="10" as="sourcePoint" />
            <mxPoint x="20" as="targetPoint" />
          </mxGeometry>
        </mxCell>
        <mxCell id="0VzW3mdC1sywO2AmrKTB-8" value="" style="group;fontFamily=FiraCode-Regular;fontColor=#666666;" vertex="1" connectable="0" parent="0VzW3mdC1sywO2AmrKTB-140">
          <mxGeometry x="125" y="75" width="30" height="30" as="geometry" />
        </mxCell>
        <mxCell id="0VzW3mdC1sywO2AmrKTB-9" value="&lt;font style=&quot;color: rgb(102, 102, 102);&quot;&gt;64&lt;/font&gt;" style="text;html=1;align=center;verticalAlign=middle;whiteSpace=wrap;rounded=0;fontFamily=FiraCode-Regular;" vertex="1" parent="0VzW3mdC1sywO2AmrKTB-8">
          <mxGeometry y="10" width="30" height="20" as="geometry" />
        </mxCell>
        <mxCell id="0VzW3mdC1sywO2AmrKTB-10" value="" style="endArrow=none;html=1;rounded=0;fontFamily=FiraCode-Regular;strokeWidth=1;strokeColor=#666666;endSize=7;startSize=7;jumpSize=7;exitX=0.5;exitY=0;exitDx=0;exitDy=0;" edge="1" parent="0VzW3mdC1sywO2AmrKTB-8">
          <mxGeometry width="50" height="50" relative="1" as="geometry">
            <mxPoint x="12.5" y="10" as="sourcePoint" />
            <mxPoint x="20" as="targetPoint" />
          </mxGeometry>
        </mxCell>
        <mxCell id="0VzW3mdC1sywO2AmrKTB-16" value="" style="endArrow=classic;html=1;rounded=0;entryX=0;entryY=0.25;entryDx=0;entryDy=0;fontFamily=FiraCode-Regular;" edge="1" parent="0VzW3mdC1sywO2AmrKTB-140" target="ytDnAZ9jMwG_x9aCp5TH-1">
          <mxGeometry width="50" height="50" relative="1" as="geometry">
            <mxPoint x="29" y="220" as="sourcePoint" />
            <mxPoint x="29" y="90" as="targetPoint" />
            <Array as="points">
              <mxPoint x="29" y="80" />
            </Array>
          </mxGeometry>
        </mxCell>
        <mxCell id="0VzW3mdC1sywO2AmrKTB-18" value="&lt;font&gt;IV&lt;font style=&quot;&quot;&gt;∥&lt;/font&gt;K&lt;font style=&quot;&quot;&gt;∥&lt;/font&gt;N&lt;/font&gt;" style="text;html=1;align=center;verticalAlign=middle;whiteSpace=wrap;rounded=0;fontFamily=FiraCode-Regular;" vertex="1" parent="0VzW3mdC1sywO2AmrKTB-140">
          <mxGeometry y="230" width="60" height="10" as="geometry" />
        </mxCell>
        <mxCell id="0VzW3mdC1sywO2AmrKTB-19" value="&lt;font&gt;&lt;font style=&quot;&quot;&gt;0&lt;sup&gt;&lt;font style=&quot;font-size: 8px;&quot;&gt;64&lt;/font&gt;&lt;/sup&gt;&lt;/font&gt;&lt;font style=&quot;&quot;&gt;∥&lt;/font&gt;K&lt;/font&gt;" style="text;html=1;align=center;verticalAlign=middle;whiteSpace=wrap;rounded=0;fontFamily=FiraCode-Regular;" vertex="1" parent="0VzW3mdC1sywO2AmrKTB-140">
          <mxGeometry x="131.5" y="230" width="25" height="10" as="geometry" />
        </mxCell>
        <mxCell id="0VzW3mdC1sywO2AmrKTB-20" style="edgeStyle=orthogonalEdgeStyle;rounded=0;orthogonalLoop=1;jettySize=auto;html=1;startArrow=classic;startFill=1;endArrow=none;fontFamily=FiraCode-Regular;" edge="1" parent="0VzW3mdC1sywO2AmrKTB-140">
          <mxGeometry relative="1" as="geometry">
            <mxPoint x="203.68000000000006" y="20" as="targetPoint" />
            <mxPoint x="203.68000000000006" y="75" as="sourcePoint" />
          </mxGeometry>
        </mxCell>
        <mxCell id="0VzW3mdC1sywO2AmrKTB-21" value="A&lt;sub&gt;&lt;font style=&quot;font-size: 8px;&quot;&gt;0&lt;/font&gt;&lt;/sub&gt;" style="text;html=1;align=center;verticalAlign=middle;whiteSpace=wrap;rounded=0;fontFamily=FiraCode-Regular;flipV=1;" vertex="1" parent="0VzW3mdC1sywO2AmrKTB-140">
          <mxGeometry x="191.5" width="25" height="10" as="geometry" />
        </mxCell>
        <mxCell id="0VzW3mdC1sywO2AmrKTB-23" value="&lt;font style=&quot;color: rgb(77, 77, 77);&quot;&gt;Initialization&lt;/font&gt;" style="text;html=1;align=center;verticalAlign=middle;whiteSpace=wrap;rounded=0;fontFamily=FiraCode-Regular;fontStyle=1" vertex="1" parent="0VzW3mdC1sywO2AmrKTB-140">
          <mxGeometry x="10" y="270" width="159" height="10" as="geometry" />
        </mxCell>
        <mxCell id="0VzW3mdC1sywO2AmrKTB-24" value="" style="endArrow=none;html=1;rounded=0;dashed=1;strokeColor=#4D4D4D;fontFamily=FiraCode-Regular;strokeWidth=2;" edge="1" parent="0VzW3mdC1sywO2AmrKTB-140">
          <mxGeometry width="50" height="50" relative="1" as="geometry">
            <mxPoint x="339" y="230" as="sourcePoint" />
            <mxPoint x="339" y="10" as="targetPoint" />
          </mxGeometry>
        </mxCell>
        <mxCell id="0VzW3mdC1sywO2AmrKTB-25" value="&lt;font style=&quot;color: rgb(77, 77, 77);&quot;&gt;Associated Data&lt;/font&gt;" style="text;html=1;align=center;verticalAlign=middle;whiteSpace=wrap;rounded=0;fontFamily=FiraCode-Regular;fontStyle=1" vertex="1" parent="0VzW3mdC1sywO2AmrKTB-140">
          <mxGeometry x="169" y="270" width="170" height="10" as="geometry" />
        </mxCell>
        <mxCell id="0VzW3mdC1sywO2AmrKTB-26" style="edgeStyle=orthogonalEdgeStyle;rounded=0;orthogonalLoop=1;jettySize=auto;html=1;exitX=1;exitY=0.75;exitDx=0;exitDy=0;fontFamily=FiraCode-Regular;entryX=0;entryY=0.5;entryDx=0;entryDy=0;" edge="1" parent="0VzW3mdC1sywO2AmrKTB-140" target="0VzW3mdC1sywO2AmrKTB-29">
          <mxGeometry relative="1" as="geometry">
            <mxPoint x="305" y="160" as="targetPoint" />
            <mxPoint x="289" y="160" as="sourcePoint" />
          </mxGeometry>
        </mxCell>
        <mxCell id="0VzW3mdC1sywO2AmrKTB-27" value="" style="group;fontFamily=FiraCode-Regular;" vertex="1" connectable="0" parent="0VzW3mdC1sywO2AmrKTB-140">
          <mxGeometry x="305" y="155" width="10" height="10" as="geometry" />
        </mxCell>
        <mxCell id="0VzW3mdC1sywO2AmrKTB-28" style="edgeStyle=orthogonalEdgeStyle;rounded=0;orthogonalLoop=1;jettySize=auto;html=1;startArrow=classic;startFill=1;endArrow=none;fontFamily=FiraCode-Regular;" edge="1" parent="0VzW3mdC1sywO2AmrKTB-27" source="0VzW3mdC1sywO2AmrKTB-29">
          <mxGeometry relative="1" as="geometry">
            <mxPoint x="5" y="65" as="targetPoint" />
          </mxGeometry>
        </mxCell>
        <mxCell id="0VzW3mdC1sywO2AmrKTB-29" value="" style="ellipse;whiteSpace=wrap;html=1;aspect=fixed;fontFamily=FiraCode-Regular;" vertex="1" parent="0VzW3mdC1sywO2AmrKTB-27">
          <mxGeometry width="10" height="10" as="geometry" />
        </mxCell>
        <mxCell id="0VzW3mdC1sywO2AmrKTB-30" value="" style="endArrow=none;html=1;rounded=0;entryX=0.5;entryY=0;entryDx=0;entryDy=0;exitX=0.5;exitY=1;exitDx=0;exitDy=0;fontFamily=FiraCode-Regular;" edge="1" parent="0VzW3mdC1sywO2AmrKTB-27" source="0VzW3mdC1sywO2AmrKTB-29" target="0VzW3mdC1sywO2AmrKTB-29">
          <mxGeometry width="50" height="50" relative="1" as="geometry">
            <mxPoint y="10" as="sourcePoint" />
            <mxPoint x="10" as="targetPoint" />
          </mxGeometry>
        </mxCell>
        <mxCell id="0VzW3mdC1sywO2AmrKTB-31" value="" style="endArrow=none;html=1;rounded=0;exitX=0.5;exitY=1;exitDx=0;exitDy=0;entryX=1;entryY=0.5;entryDx=0;entryDy=0;fontFamily=FiraCode-Regular;" edge="1" parent="0VzW3mdC1sywO2AmrKTB-27" target="0VzW3mdC1sywO2AmrKTB-29">
          <mxGeometry width="50" height="50" relative="1" as="geometry">
            <mxPoint y="4.970000000000027" as="sourcePoint" />
            <mxPoint x="5" y="4.970000000000027" as="targetPoint" />
          </mxGeometry>
        </mxCell>
        <mxCell id="0VzW3mdC1sywO2AmrKTB-32" value="&lt;font&gt;&lt;font style=&quot;&quot;&gt;0&lt;sup style=&quot;&quot;&gt;&lt;font style=&quot;font-size: 8px;&quot;&gt;255&lt;/font&gt;&lt;/sup&gt;&lt;/font&gt;&lt;font style=&quot;&quot;&gt;∥1&lt;/font&gt;&lt;/font&gt;" style="text;html=1;align=center;verticalAlign=middle;whiteSpace=wrap;rounded=0;fontFamily=FiraCode-Regular;" vertex="1" parent="0VzW3mdC1sywO2AmrKTB-140">
          <mxGeometry x="297.5" y="230" width="25" height="10" as="geometry" />
        </mxCell>
        <mxCell id="0VzW3mdC1sywO2AmrKTB-78" style="edgeStyle=orthogonalEdgeStyle;rounded=0;orthogonalLoop=1;jettySize=auto;html=1;exitX=1;exitY=0.75;exitDx=0;exitDy=0;endArrow=none;startFill=0;dashed=1;dashPattern=1 1;fontFamily=FiraCode-Regular;" edge="1" parent="0VzW3mdC1sywO2AmrKTB-140" source="0VzW3mdC1sywO2AmrKTB-33">
          <mxGeometry relative="1" as="geometry">
            <mxPoint x="469" y="159.97297297297297" as="targetPoint" />
          </mxGeometry>
        </mxCell>
        <mxCell id="0VzW3mdC1sywO2AmrKTB-79" style="edgeStyle=orthogonalEdgeStyle;rounded=0;orthogonalLoop=1;jettySize=auto;html=1;exitX=1;exitY=0.25;exitDx=0;exitDy=0;endArrow=none;startFill=0;dashed=1;dashPattern=1 1;fontFamily=FiraCode-Regular;" edge="1" parent="0VzW3mdC1sywO2AmrKTB-140" source="0VzW3mdC1sywO2AmrKTB-33">
          <mxGeometry relative="1" as="geometry">
            <mxPoint x="469" y="79.97297297297297" as="targetPoint" />
          </mxGeometry>
        </mxCell>
        <mxCell id="0VzW3mdC1sywO2AmrKTB-33" value="Ascon-p[6]" style="rounded=1;whiteSpace=wrap;html=1;strokeColor=default;fillColor=#FFFFFF;fontStyle=0;arcSize=8;fontFamily=FiraCode-Regular;fontColor=#000000;horizontal=0;" vertex="1" parent="0VzW3mdC1sywO2AmrKTB-140">
          <mxGeometry x="389" y="40" width="60" height="160" as="geometry" />
        </mxCell>
        <mxCell id="0VzW3mdC1sywO2AmrKTB-36" value="" style="group;fontFamily=FiraCode-Regular;" vertex="1" connectable="0" parent="0VzW3mdC1sywO2AmrKTB-140">
          <mxGeometry x="357.5" y="75" width="10" height="10" as="geometry" />
        </mxCell>
        <mxCell id="0VzW3mdC1sywO2AmrKTB-37" value="" style="ellipse;whiteSpace=wrap;html=1;aspect=fixed;fontFamily=FiraCode-Regular;" vertex="1" parent="0VzW3mdC1sywO2AmrKTB-36">
          <mxGeometry width="10" height="10" as="geometry" />
        </mxCell>
        <mxCell id="0VzW3mdC1sywO2AmrKTB-38" value="" style="endArrow=none;html=1;rounded=0;entryX=0.5;entryY=0;entryDx=0;entryDy=0;exitX=0.5;exitY=1;exitDx=0;exitDy=0;fontFamily=FiraCode-Regular;" edge="1" parent="0VzW3mdC1sywO2AmrKTB-36" source="0VzW3mdC1sywO2AmrKTB-37" target="0VzW3mdC1sywO2AmrKTB-37">
          <mxGeometry width="50" height="50" relative="1" as="geometry">
            <mxPoint y="10" as="sourcePoint" />
            <mxPoint x="10" as="targetPoint" />
          </mxGeometry>
        </mxCell>
        <mxCell id="0VzW3mdC1sywO2AmrKTB-39" value="" style="endArrow=none;html=1;rounded=0;exitX=0.5;exitY=1;exitDx=0;exitDy=0;entryX=1;entryY=0.5;entryDx=0;entryDy=0;fontFamily=FiraCode-Regular;" edge="1" parent="0VzW3mdC1sywO2AmrKTB-36" target="0VzW3mdC1sywO2AmrKTB-37">
          <mxGeometry width="50" height="50" relative="1" as="geometry">
            <mxPoint y="4.970000000000027" as="sourcePoint" />
            <mxPoint x="5" y="4.970000000000027" as="targetPoint" />
          </mxGeometry>
        </mxCell>
        <mxCell id="0VzW3mdC1sywO2AmrKTB-40" style="edgeStyle=orthogonalEdgeStyle;rounded=0;orthogonalLoop=1;jettySize=auto;html=1;exitX=1;exitY=0.5;exitDx=0;exitDy=0;fontFamily=FiraCode-Regular;" edge="1" parent="0VzW3mdC1sywO2AmrKTB-140" source="0VzW3mdC1sywO2AmrKTB-37">
          <mxGeometry relative="1" as="geometry">
            <mxPoint x="389" y="80" as="targetPoint" />
          </mxGeometry>
        </mxCell>
        <mxCell id="0VzW3mdC1sywO2AmrKTB-41" value="" style="group;fontFamily=FiraCode-Regular;fontColor=#666666;" vertex="1" connectable="0" parent="0VzW3mdC1sywO2AmrKTB-140">
          <mxGeometry x="291" y="75" width="30" height="30" as="geometry" />
        </mxCell>
        <mxCell id="0VzW3mdC1sywO2AmrKTB-42" value="&lt;font style=&quot;color: rgb(102, 102, 102);&quot;&gt;64&lt;/font&gt;" style="text;html=1;align=center;verticalAlign=middle;whiteSpace=wrap;rounded=0;fontFamily=FiraCode-Regular;" vertex="1" parent="0VzW3mdC1sywO2AmrKTB-41">
          <mxGeometry y="10" width="30" height="20" as="geometry" />
        </mxCell>
        <mxCell id="0VzW3mdC1sywO2AmrKTB-43" value="" style="endArrow=none;html=1;rounded=0;fontFamily=FiraCode-Regular;strokeWidth=1;strokeColor=#666666;endSize=7;startSize=7;jumpSize=7;exitX=0.5;exitY=0;exitDx=0;exitDy=0;" edge="1" parent="0VzW3mdC1sywO2AmrKTB-41">
          <mxGeometry width="50" height="50" relative="1" as="geometry">
            <mxPoint x="12.5" y="10" as="sourcePoint" />
            <mxPoint x="20" as="targetPoint" />
          </mxGeometry>
        </mxCell>
        <mxCell id="0VzW3mdC1sywO2AmrKTB-44" style="edgeStyle=orthogonalEdgeStyle;rounded=0;orthogonalLoop=1;jettySize=auto;html=1;startArrow=classic;startFill=1;endArrow=none;fontFamily=FiraCode-Regular;" edge="1" parent="0VzW3mdC1sywO2AmrKTB-140">
          <mxGeometry relative="1" as="geometry">
            <mxPoint x="362.4100000000001" y="20" as="targetPoint" />
            <mxPoint x="362.4100000000001" y="75" as="sourcePoint" />
          </mxGeometry>
        </mxCell>
        <mxCell id="0VzW3mdC1sywO2AmrKTB-45" value="P&lt;sub style=&quot;&quot;&gt;&lt;font style=&quot;font-size: 8px;&quot;&gt;0&lt;/font&gt;&lt;/sub&gt;" style="text;html=1;align=center;verticalAlign=middle;whiteSpace=wrap;rounded=0;fontFamily=FiraCode-Regular;flipV=1;" vertex="1" parent="0VzW3mdC1sywO2AmrKTB-140">
          <mxGeometry x="350" width="25" height="10" as="geometry" />
        </mxCell>
        <mxCell id="0VzW3mdC1sywO2AmrKTB-49" value="C&lt;sub&gt;&lt;font style=&quot;font-size: 8px;&quot;&gt;0&lt;/font&gt;&lt;/sub&gt;" style="text;html=1;align=center;verticalAlign=middle;whiteSpace=wrap;rounded=0;fontFamily=FiraCode-Regular;flipV=1;" vertex="1" parent="0VzW3mdC1sywO2AmrKTB-140">
          <mxGeometry x="363.5" width="25" height="10" as="geometry" />
        </mxCell>
        <mxCell id="0VzW3mdC1sywO2AmrKTB-53" value="" style="group;fontFamily=FiraCode-Regular;" vertex="1" connectable="0" parent="0VzW3mdC1sywO2AmrKTB-140">
          <mxGeometry x="374" y="20" width="2" height="61" as="geometry" />
        </mxCell>
        <mxCell id="0VzW3mdC1sywO2AmrKTB-48" value="" style="endArrow=classic;html=1;rounded=0;fontFamily=FiraCode-Regular;" edge="1" parent="0VzW3mdC1sywO2AmrKTB-53">
          <mxGeometry width="50" height="50" relative="1" as="geometry">
            <mxPoint x="0.9900000000000091" y="59.03225806451613" as="sourcePoint" />
            <mxPoint x="0.9900000000000091" as="targetPoint" />
          </mxGeometry>
        </mxCell>
        <mxCell id="0VzW3mdC1sywO2AmrKTB-50" value="" style="ellipse;whiteSpace=wrap;html=1;aspect=fixed;fillColor=#000000;fontFamily=FiraCode-Regular;" vertex="1" parent="0VzW3mdC1sywO2AmrKTB-53">
          <mxGeometry y="59.03225806451613" width="1.967741935483871" height="1.967741935483871" as="geometry" />
        </mxCell>
        <mxCell id="0VzW3mdC1sywO2AmrKTB-54" style="edgeStyle=orthogonalEdgeStyle;rounded=0;orthogonalLoop=1;jettySize=auto;html=1;fontFamily=FiraCode-Regular;exitX=1;exitY=0.5;exitDx=0;exitDy=0;" edge="1" parent="0VzW3mdC1sywO2AmrKTB-140" source="0VzW3mdC1sywO2AmrKTB-29">
          <mxGeometry relative="1" as="geometry">
            <mxPoint x="319" y="160" as="sourcePoint" />
            <mxPoint x="389" y="160" as="targetPoint" />
          </mxGeometry>
        </mxCell>
        <mxCell id="0VzW3mdC1sywO2AmrKTB-55" value="" style="group;fontFamily=FiraCode-Regular;fontColor=#666666;" vertex="1" connectable="0" parent="0VzW3mdC1sywO2AmrKTB-140">
          <mxGeometry x="349" y="155" width="30" height="30" as="geometry" />
        </mxCell>
        <mxCell id="0VzW3mdC1sywO2AmrKTB-56" value="&lt;font style=&quot;color: rgb(102, 102, 102);&quot;&gt;256&lt;/font&gt;" style="text;html=1;align=center;verticalAlign=middle;whiteSpace=wrap;rounded=0;fontFamily=FiraCode-Regular;" vertex="1" parent="0VzW3mdC1sywO2AmrKTB-55">
          <mxGeometry y="10" width="30" height="20" as="geometry" />
        </mxCell>
        <mxCell id="0VzW3mdC1sywO2AmrKTB-57" value="" style="endArrow=none;html=1;rounded=0;fontFamily=FiraCode-Regular;strokeWidth=1;strokeColor=#666666;endSize=7;startSize=7;jumpSize=7;exitX=0.5;exitY=0;exitDx=0;exitDy=0;" edge="1" parent="0VzW3mdC1sywO2AmrKTB-55">
          <mxGeometry width="50" height="50" relative="1" as="geometry">
            <mxPoint x="12.5" y="10" as="sourcePoint" />
            <mxPoint x="20" as="targetPoint" />
          </mxGeometry>
        </mxCell>
        <mxCell id="0VzW3mdC1sywO2AmrKTB-77" style="edgeStyle=orthogonalEdgeStyle;rounded=0;orthogonalLoop=1;jettySize=auto;html=1;exitX=0;exitY=0.75;exitDx=0;exitDy=0;startArrow=classic;startFill=1;endArrow=none;fontFamily=FiraCode-Regular;" edge="1" parent="0VzW3mdC1sywO2AmrKTB-140" source="0VzW3mdC1sywO2AmrKTB-59">
          <mxGeometry relative="1" as="geometry">
            <mxPoint x="469" y="159.97297297297297" as="targetPoint" />
          </mxGeometry>
        </mxCell>
        <mxCell id="0VzW3mdC1sywO2AmrKTB-94" style="edgeStyle=orthogonalEdgeStyle;rounded=0;orthogonalLoop=1;jettySize=auto;html=1;exitX=1;exitY=0.25;exitDx=0;exitDy=0;entryX=0;entryY=0.5;entryDx=0;entryDy=0;fontFamily=FiraCode-Regular;" edge="1" parent="0VzW3mdC1sywO2AmrKTB-140" source="0VzW3mdC1sywO2AmrKTB-59" target="0VzW3mdC1sywO2AmrKTB-86">
          <mxGeometry relative="1" as="geometry" />
        </mxCell>
        <mxCell id="0VzW3mdC1sywO2AmrKTB-110" style="edgeStyle=orthogonalEdgeStyle;rounded=0;orthogonalLoop=1;jettySize=auto;html=1;exitX=1;exitY=0.75;exitDx=0;exitDy=0;entryX=0;entryY=0.5;entryDx=0;entryDy=0;fontFamily=FiraCode-Regular;" edge="1" parent="0VzW3mdC1sywO2AmrKTB-140" source="0VzW3mdC1sywO2AmrKTB-59" target="0VzW3mdC1sywO2AmrKTB-100">
          <mxGeometry relative="1" as="geometry" />
        </mxCell>
        <mxCell id="0VzW3mdC1sywO2AmrKTB-59" value="Ascon-p[6]" style="rounded=1;whiteSpace=wrap;html=1;strokeColor=default;fillColor=#FFFFFF;fontStyle=0;arcSize=8;fontFamily=FiraCode-Regular;fontColor=#000000;horizontal=0;" vertex="1" parent="0VzW3mdC1sywO2AmrKTB-140">
          <mxGeometry x="549" y="40" width="60" height="160" as="geometry" />
        </mxCell>
        <mxCell id="0VzW3mdC1sywO2AmrKTB-60" value="" style="group;fontFamily=FiraCode-Regular;" vertex="1" connectable="0" parent="0VzW3mdC1sywO2AmrKTB-140">
          <mxGeometry x="517.5" y="75" width="10" height="10" as="geometry" />
        </mxCell>
        <mxCell id="0VzW3mdC1sywO2AmrKTB-80" style="edgeStyle=orthogonalEdgeStyle;rounded=0;orthogonalLoop=1;jettySize=auto;html=1;endArrow=none;startFill=1;startArrow=classic;fontFamily=FiraCode-Regular;" edge="1" parent="0VzW3mdC1sywO2AmrKTB-60" source="0VzW3mdC1sywO2AmrKTB-61">
          <mxGeometry relative="1" as="geometry">
            <mxPoint x="-48.5" y="5" as="targetPoint" />
          </mxGeometry>
        </mxCell>
        <mxCell id="0VzW3mdC1sywO2AmrKTB-61" value="" style="ellipse;whiteSpace=wrap;html=1;aspect=fixed;fontFamily=FiraCode-Regular;" vertex="1" parent="0VzW3mdC1sywO2AmrKTB-60">
          <mxGeometry width="10" height="10" as="geometry" />
        </mxCell>
        <mxCell id="0VzW3mdC1sywO2AmrKTB-62" value="" style="endArrow=none;html=1;rounded=0;entryX=0.5;entryY=0;entryDx=0;entryDy=0;exitX=0.5;exitY=1;exitDx=0;exitDy=0;fontFamily=FiraCode-Regular;" edge="1" parent="0VzW3mdC1sywO2AmrKTB-60" source="0VzW3mdC1sywO2AmrKTB-61" target="0VzW3mdC1sywO2AmrKTB-61">
          <mxGeometry width="50" height="50" relative="1" as="geometry">
            <mxPoint y="10" as="sourcePoint" />
            <mxPoint x="10" as="targetPoint" />
          </mxGeometry>
        </mxCell>
        <mxCell id="0VzW3mdC1sywO2AmrKTB-63" value="" style="endArrow=none;html=1;rounded=0;exitX=0.5;exitY=1;exitDx=0;exitDy=0;entryX=1;entryY=0.5;entryDx=0;entryDy=0;fontFamily=FiraCode-Regular;" edge="1" parent="0VzW3mdC1sywO2AmrKTB-60" target="0VzW3mdC1sywO2AmrKTB-61">
          <mxGeometry width="50" height="50" relative="1" as="geometry">
            <mxPoint y="4.970000000000027" as="sourcePoint" />
            <mxPoint x="5" y="4.970000000000027" as="targetPoint" />
          </mxGeometry>
        </mxCell>
        <mxCell id="0VzW3mdC1sywO2AmrKTB-64" style="edgeStyle=orthogonalEdgeStyle;rounded=0;orthogonalLoop=1;jettySize=auto;html=1;exitX=1;exitY=0.5;exitDx=0;exitDy=0;fontFamily=FiraCode-Regular;" edge="1" parent="0VzW3mdC1sywO2AmrKTB-140" source="0VzW3mdC1sywO2AmrKTB-61">
          <mxGeometry relative="1" as="geometry">
            <mxPoint x="549" y="80" as="targetPoint" />
          </mxGeometry>
        </mxCell>
        <mxCell id="0VzW3mdC1sywO2AmrKTB-65" style="edgeStyle=orthogonalEdgeStyle;rounded=0;orthogonalLoop=1;jettySize=auto;html=1;startArrow=classic;startFill=1;endArrow=none;fontFamily=FiraCode-Regular;" edge="1" parent="0VzW3mdC1sywO2AmrKTB-140">
          <mxGeometry relative="1" as="geometry">
            <mxPoint x="522.4100000000001" y="20" as="targetPoint" />
            <mxPoint x="522.4100000000001" y="75" as="sourcePoint" />
          </mxGeometry>
        </mxCell>
        <mxCell id="0VzW3mdC1sywO2AmrKTB-66" value="P&lt;sub style=&quot;&quot;&gt;&lt;font style=&quot;font-size: 8px;&quot;&gt;3&lt;/font&gt;&lt;/sub&gt;" style="text;html=1;align=center;verticalAlign=middle;whiteSpace=wrap;rounded=0;fontFamily=FiraCode-Regular;flipV=1;" vertex="1" parent="0VzW3mdC1sywO2AmrKTB-140">
          <mxGeometry x="510" width="25" height="10" as="geometry" />
        </mxCell>
        <mxCell id="0VzW3mdC1sywO2AmrKTB-67" value="C&lt;sub&gt;&lt;font style=&quot;font-size: 8px;&quot;&gt;3&lt;/font&gt;&lt;/sub&gt;" style="text;html=1;align=center;verticalAlign=middle;whiteSpace=wrap;rounded=0;fontFamily=FiraCode-Regular;flipV=1;" vertex="1" parent="0VzW3mdC1sywO2AmrKTB-140">
          <mxGeometry x="523.5" width="25" height="10" as="geometry" />
        </mxCell>
        <mxCell id="0VzW3mdC1sywO2AmrKTB-68" value="" style="group;fontFamily=FiraCode-Regular;" vertex="1" connectable="0" parent="0VzW3mdC1sywO2AmrKTB-140">
          <mxGeometry x="534" y="20" width="2" height="61" as="geometry" />
        </mxCell>
        <mxCell id="0VzW3mdC1sywO2AmrKTB-69" value="" style="endArrow=classic;html=1;rounded=0;fontFamily=FiraCode-Regular;" edge="1" parent="0VzW3mdC1sywO2AmrKTB-68">
          <mxGeometry width="50" height="50" relative="1" as="geometry">
            <mxPoint x="0.9900000000000091" y="59.03225806451613" as="sourcePoint" />
            <mxPoint x="0.9900000000000091" as="targetPoint" />
          </mxGeometry>
        </mxCell>
        <mxCell id="0VzW3mdC1sywO2AmrKTB-70" value="" style="ellipse;whiteSpace=wrap;html=1;aspect=fixed;fillColor=#000000;fontFamily=FiraCode-Regular;" vertex="1" parent="0VzW3mdC1sywO2AmrKTB-68">
          <mxGeometry y="59.03225806451613" width="1.967741935483871" height="1.967741935483871" as="geometry" />
        </mxCell>
        <mxCell id="0VzW3mdC1sywO2AmrKTB-71" value="" style="group;fontFamily=FiraCode-Regular;fontColor=#666666;" vertex="1" connectable="0" parent="0VzW3mdC1sywO2AmrKTB-140">
          <mxGeometry x="509" y="155" width="30" height="30" as="geometry" />
        </mxCell>
        <mxCell id="0VzW3mdC1sywO2AmrKTB-72" value="&lt;font style=&quot;color: rgb(102, 102, 102);&quot;&gt;256&lt;/font&gt;" style="text;html=1;align=center;verticalAlign=middle;whiteSpace=wrap;rounded=0;fontFamily=FiraCode-Regular;" vertex="1" parent="0VzW3mdC1sywO2AmrKTB-71">
          <mxGeometry y="10" width="30" height="20" as="geometry" />
        </mxCell>
        <mxCell id="0VzW3mdC1sywO2AmrKTB-73" value="" style="endArrow=none;html=1;rounded=0;fontFamily=FiraCode-Regular;strokeWidth=1;strokeColor=#666666;endSize=7;startSize=7;jumpSize=7;exitX=0.5;exitY=0;exitDx=0;exitDy=0;" edge="1" parent="0VzW3mdC1sywO2AmrKTB-71">
          <mxGeometry width="50" height="50" relative="1" as="geometry">
            <mxPoint x="12.5" y="10" as="sourcePoint" />
            <mxPoint x="20" as="targetPoint" />
          </mxGeometry>
        </mxCell>
        <mxCell id="0VzW3mdC1sywO2AmrKTB-81" value="" style="endArrow=none;html=1;rounded=0;dashed=1;strokeColor=#4D4D4D;fontFamily=FiraCode-Regular;strokeWidth=2;" edge="1" parent="0VzW3mdC1sywO2AmrKTB-140">
          <mxGeometry width="50" height="50" relative="1" as="geometry">
            <mxPoint x="659" y="230" as="sourcePoint" />
            <mxPoint x="659" y="10" as="targetPoint" />
          </mxGeometry>
        </mxCell>
        <mxCell id="0VzW3mdC1sywO2AmrKTB-82" value="&lt;font style=&quot;color: rgb(77, 77, 77);&quot;&gt;Plaintext&lt;/font&gt;" style="text;html=1;align=center;verticalAlign=middle;whiteSpace=wrap;rounded=0;fontFamily=FiraCode-Regular;fontStyle=1" vertex="1" parent="0VzW3mdC1sywO2AmrKTB-140">
          <mxGeometry x="339" y="270" width="320" height="10" as="geometry" />
        </mxCell>
        <mxCell id="0VzW3mdC1sywO2AmrKTB-128" style="edgeStyle=orthogonalEdgeStyle;rounded=0;orthogonalLoop=1;jettySize=auto;html=1;exitX=1;exitY=0.75;exitDx=0;exitDy=0;entryX=0;entryY=0.5;entryDx=0;entryDy=0;fontFamily=FiraCode-Regular;" edge="1" parent="0VzW3mdC1sywO2AmrKTB-140" source="0VzW3mdC1sywO2AmrKTB-83" target="0VzW3mdC1sywO2AmrKTB-121">
          <mxGeometry relative="1" as="geometry">
            <mxPoint x="799" y="159.974358974359" as="targetPoint" />
          </mxGeometry>
        </mxCell>
        <mxCell id="0VzW3mdC1sywO2AmrKTB-83" value="Ascon-p[12]" style="rounded=1;whiteSpace=wrap;html=1;strokeColor=default;fillColor=#FFFFFF;fontStyle=0;arcSize=8;fontFamily=FiraCode-Regular;fontColor=#000000;horizontal=0;" vertex="1" parent="0VzW3mdC1sywO2AmrKTB-140">
          <mxGeometry x="709" y="40" width="60" height="160" as="geometry" />
        </mxCell>
        <mxCell id="0VzW3mdC1sywO2AmrKTB-84" value="" style="group;fontFamily=FiraCode-Regular;" vertex="1" connectable="0" parent="0VzW3mdC1sywO2AmrKTB-140">
          <mxGeometry x="626.5" y="75" width="10" height="10" as="geometry" />
        </mxCell>
        <mxCell id="0VzW3mdC1sywO2AmrKTB-86" value="" style="ellipse;whiteSpace=wrap;html=1;aspect=fixed;fontFamily=FiraCode-Regular;" vertex="1" parent="0VzW3mdC1sywO2AmrKTB-84">
          <mxGeometry width="10" height="10" as="geometry" />
        </mxCell>
        <mxCell id="0VzW3mdC1sywO2AmrKTB-87" value="" style="endArrow=none;html=1;rounded=0;entryX=0.5;entryY=0;entryDx=0;entryDy=0;exitX=0.5;exitY=1;exitDx=0;exitDy=0;fontFamily=FiraCode-Regular;" edge="1" parent="0VzW3mdC1sywO2AmrKTB-84" source="0VzW3mdC1sywO2AmrKTB-86" target="0VzW3mdC1sywO2AmrKTB-86">
          <mxGeometry width="50" height="50" relative="1" as="geometry">
            <mxPoint y="10" as="sourcePoint" />
            <mxPoint x="10" as="targetPoint" />
          </mxGeometry>
        </mxCell>
        <mxCell id="0VzW3mdC1sywO2AmrKTB-88" value="" style="endArrow=none;html=1;rounded=0;exitX=0.5;exitY=1;exitDx=0;exitDy=0;entryX=1;entryY=0.5;entryDx=0;entryDy=0;fontFamily=FiraCode-Regular;" edge="1" parent="0VzW3mdC1sywO2AmrKTB-84" target="0VzW3mdC1sywO2AmrKTB-86">
          <mxGeometry width="50" height="50" relative="1" as="geometry">
            <mxPoint y="4.970000000000027" as="sourcePoint" />
            <mxPoint x="5" y="4.970000000000027" as="targetPoint" />
          </mxGeometry>
        </mxCell>
        <mxCell id="0VzW3mdC1sywO2AmrKTB-89" style="edgeStyle=orthogonalEdgeStyle;rounded=0;orthogonalLoop=1;jettySize=auto;html=1;startArrow=classic;startFill=1;endArrow=none;fontFamily=FiraCode-Regular;" edge="1" parent="0VzW3mdC1sywO2AmrKTB-140">
          <mxGeometry relative="1" as="geometry">
            <mxPoint x="631.4100000000001" y="20" as="targetPoint" />
            <mxPoint x="631.4100000000001" y="75" as="sourcePoint" />
          </mxGeometry>
        </mxCell>
        <mxCell id="0VzW3mdC1sywO2AmrKTB-90" value="P&lt;sub style=&quot;&quot;&gt;&lt;font style=&quot;font-size: 8px;&quot;&gt;4&lt;/font&gt;&lt;/sub&gt;" style="text;html=1;align=center;verticalAlign=middle;whiteSpace=wrap;rounded=0;fontFamily=FiraCode-Regular;flipV=1;" vertex="1" parent="0VzW3mdC1sywO2AmrKTB-140">
          <mxGeometry x="619" width="25" height="10" as="geometry" />
        </mxCell>
        <mxCell id="0VzW3mdC1sywO2AmrKTB-91" value="" style="group;fontFamily=FiraCode-Regular;" vertex="1" connectable="0" parent="0VzW3mdC1sywO2AmrKTB-140">
          <mxGeometry x="644" y="20" width="2" height="61" as="geometry" />
        </mxCell>
        <mxCell id="0VzW3mdC1sywO2AmrKTB-92" value="" style="endArrow=classic;html=1;rounded=0;fontFamily=FiraCode-Regular;" edge="1" parent="0VzW3mdC1sywO2AmrKTB-91">
          <mxGeometry width="50" height="50" relative="1" as="geometry">
            <mxPoint x="0.9900000000000091" y="59.03225806451613" as="sourcePoint" />
            <mxPoint x="0.9900000000000091" as="targetPoint" />
          </mxGeometry>
        </mxCell>
        <mxCell id="0VzW3mdC1sywO2AmrKTB-93" value="" style="ellipse;whiteSpace=wrap;html=1;aspect=fixed;fillColor=#000000;fontFamily=FiraCode-Regular;" vertex="1" parent="0VzW3mdC1sywO2AmrKTB-91">
          <mxGeometry y="59.03225806451613" width="1.967741935483871" height="1.967741935483871" as="geometry" />
        </mxCell>
        <mxCell id="0VzW3mdC1sywO2AmrKTB-95" style="edgeStyle=orthogonalEdgeStyle;rounded=0;orthogonalLoop=1;jettySize=auto;html=1;exitX=1;exitY=0.5;exitDx=0;exitDy=0;entryX=0;entryY=0.25;entryDx=0;entryDy=0;fontFamily=FiraCode-Regular;" edge="1" parent="0VzW3mdC1sywO2AmrKTB-140" source="0VzW3mdC1sywO2AmrKTB-86" target="0VzW3mdC1sywO2AmrKTB-83">
          <mxGeometry relative="1" as="geometry" />
        </mxCell>
        <mxCell id="0VzW3mdC1sywO2AmrKTB-96" value="C&lt;sub&gt;&lt;font style=&quot;font-size: 8px;&quot;&gt;4&lt;/font&gt;&lt;/sub&gt;" style="text;html=1;align=center;verticalAlign=middle;whiteSpace=wrap;rounded=0;fontFamily=FiraCode-Regular;flipV=1;" vertex="1" parent="0VzW3mdC1sywO2AmrKTB-140">
          <mxGeometry x="631" width="25" height="10" as="geometry" />
        </mxCell>
        <mxCell id="0VzW3mdC1sywO2AmrKTB-98" value="" style="group;fontFamily=FiraCode-Regular;" vertex="1" connectable="0" parent="0VzW3mdC1sywO2AmrKTB-140">
          <mxGeometry x="679" y="155" width="10" height="10" as="geometry" />
        </mxCell>
        <mxCell id="0VzW3mdC1sywO2AmrKTB-100" value="" style="ellipse;whiteSpace=wrap;html=1;aspect=fixed;fontFamily=FiraCode-Regular;" vertex="1" parent="0VzW3mdC1sywO2AmrKTB-98">
          <mxGeometry width="10" height="10" as="geometry" />
        </mxCell>
        <mxCell id="0VzW3mdC1sywO2AmrKTB-101" value="" style="endArrow=none;html=1;rounded=0;entryX=0.5;entryY=0;entryDx=0;entryDy=0;exitX=0.5;exitY=1;exitDx=0;exitDy=0;fontFamily=FiraCode-Regular;" edge="1" parent="0VzW3mdC1sywO2AmrKTB-98" source="0VzW3mdC1sywO2AmrKTB-100" target="0VzW3mdC1sywO2AmrKTB-100">
          <mxGeometry width="50" height="50" relative="1" as="geometry">
            <mxPoint y="10" as="sourcePoint" />
            <mxPoint x="10" as="targetPoint" />
          </mxGeometry>
        </mxCell>
        <mxCell id="0VzW3mdC1sywO2AmrKTB-102" value="" style="endArrow=none;html=1;rounded=0;exitX=0.5;exitY=1;exitDx=0;exitDy=0;entryX=1;entryY=0.5;entryDx=0;entryDy=0;fontFamily=FiraCode-Regular;" edge="1" parent="0VzW3mdC1sywO2AmrKTB-98" target="0VzW3mdC1sywO2AmrKTB-100">
          <mxGeometry width="50" height="50" relative="1" as="geometry">
            <mxPoint y="4.970000000000027" as="sourcePoint" />
            <mxPoint x="5" y="4.970000000000027" as="targetPoint" />
          </mxGeometry>
        </mxCell>
        <mxCell id="0VzW3mdC1sywO2AmrKTB-109" style="edgeStyle=orthogonalEdgeStyle;rounded=0;orthogonalLoop=1;jettySize=auto;html=1;exitX=1;exitY=0.5;exitDx=0;exitDy=0;fontFamily=FiraCode-Regular;" edge="1" parent="0VzW3mdC1sywO2AmrKTB-140" source="0VzW3mdC1sywO2AmrKTB-100">
          <mxGeometry relative="1" as="geometry">
            <mxPoint x="709" y="160" as="targetPoint" />
          </mxGeometry>
        </mxCell>
        <mxCell id="0VzW3mdC1sywO2AmrKTB-114" value="" style="group;fontFamily=FiraCode-Regular;fontColor=#666666;" vertex="1" connectable="0" parent="0VzW3mdC1sywO2AmrKTB-140">
          <mxGeometry x="619" y="155" width="30" height="30" as="geometry" />
        </mxCell>
        <mxCell id="0VzW3mdC1sywO2AmrKTB-115" value="&lt;font style=&quot;color: rgb(102, 102, 102);&quot;&gt;256&lt;/font&gt;" style="text;html=1;align=center;verticalAlign=middle;whiteSpace=wrap;rounded=0;fontFamily=FiraCode-Regular;" vertex="1" parent="0VzW3mdC1sywO2AmrKTB-114">
          <mxGeometry y="10" width="30" height="20" as="geometry" />
        </mxCell>
        <mxCell id="0VzW3mdC1sywO2AmrKTB-116" value="" style="endArrow=none;html=1;rounded=0;fontFamily=FiraCode-Regular;strokeWidth=1;strokeColor=#666666;endSize=7;startSize=7;jumpSize=7;exitX=0.5;exitY=0;exitDx=0;exitDy=0;" edge="1" parent="0VzW3mdC1sywO2AmrKTB-114">
          <mxGeometry width="50" height="50" relative="1" as="geometry">
            <mxPoint x="12.5" y="10" as="sourcePoint" />
            <mxPoint x="20" as="targetPoint" />
          </mxGeometry>
        </mxCell>
        <mxCell id="0VzW3mdC1sywO2AmrKTB-117" value="" style="group;fontFamily=FiraCode-Regular;fontColor=#666666;" vertex="1" connectable="0" parent="0VzW3mdC1sywO2AmrKTB-140">
          <mxGeometry x="669" y="75" width="30" height="30" as="geometry" />
        </mxCell>
        <mxCell id="0VzW3mdC1sywO2AmrKTB-118" value="&lt;font style=&quot;color: rgb(102, 102, 102);&quot;&gt;64&lt;/font&gt;" style="text;html=1;align=center;verticalAlign=middle;whiteSpace=wrap;rounded=0;fontFamily=FiraCode-Regular;" vertex="1" parent="0VzW3mdC1sywO2AmrKTB-117">
          <mxGeometry y="10" width="30" height="20" as="geometry" />
        </mxCell>
        <mxCell id="0VzW3mdC1sywO2AmrKTB-119" value="" style="endArrow=none;html=1;rounded=0;fontFamily=FiraCode-Regular;strokeWidth=1;strokeColor=#666666;endSize=7;startSize=7;jumpSize=7;exitX=0.5;exitY=0;exitDx=0;exitDy=0;" edge="1" parent="0VzW3mdC1sywO2AmrKTB-117">
          <mxGeometry width="50" height="50" relative="1" as="geometry">
            <mxPoint x="12.5" y="10" as="sourcePoint" />
            <mxPoint x="20" as="targetPoint" />
          </mxGeometry>
        </mxCell>
        <mxCell id="0VzW3mdC1sywO2AmrKTB-120" value="" style="group;fontFamily=FiraCode-Regular;" vertex="1" connectable="0" parent="0VzW3mdC1sywO2AmrKTB-140">
          <mxGeometry x="806.5" y="155" width="10" height="10" as="geometry" />
        </mxCell>
        <mxCell id="0VzW3mdC1sywO2AmrKTB-121" value="" style="ellipse;whiteSpace=wrap;html=1;aspect=fixed;fontFamily=FiraCode-Regular;" vertex="1" parent="0VzW3mdC1sywO2AmrKTB-120">
          <mxGeometry width="10" height="10" as="geometry" />
        </mxCell>
        <mxCell id="0VzW3mdC1sywO2AmrKTB-122" value="" style="endArrow=none;html=1;rounded=0;entryX=0.5;entryY=0;entryDx=0;entryDy=0;exitX=0.5;exitY=1;exitDx=0;exitDy=0;fontFamily=FiraCode-Regular;" edge="1" parent="0VzW3mdC1sywO2AmrKTB-120" source="0VzW3mdC1sywO2AmrKTB-121" target="0VzW3mdC1sywO2AmrKTB-121">
          <mxGeometry width="50" height="50" relative="1" as="geometry">
            <mxPoint y="10" as="sourcePoint" />
            <mxPoint x="10" as="targetPoint" />
          </mxGeometry>
        </mxCell>
        <mxCell id="0VzW3mdC1sywO2AmrKTB-123" value="" style="endArrow=none;html=1;rounded=0;exitX=0.5;exitY=1;exitDx=0;exitDy=0;entryX=1;entryY=0.5;entryDx=0;entryDy=0;fontFamily=FiraCode-Regular;" edge="1" parent="0VzW3mdC1sywO2AmrKTB-120" target="0VzW3mdC1sywO2AmrKTB-121">
          <mxGeometry width="50" height="50" relative="1" as="geometry">
            <mxPoint y="4.970000000000027" as="sourcePoint" />
            <mxPoint x="5" y="4.970000000000027" as="targetPoint" />
          </mxGeometry>
        </mxCell>
        <mxCell id="0VzW3mdC1sywO2AmrKTB-124" style="edgeStyle=orthogonalEdgeStyle;rounded=0;orthogonalLoop=1;jettySize=auto;html=1;exitX=1;exitY=0.5;exitDx=0;exitDy=0;entryX=0;entryY=0.75;entryDx=0;entryDy=0;fontFamily=FiraCode-Regular;" edge="1" parent="0VzW3mdC1sywO2AmrKTB-140" source="0VzW3mdC1sywO2AmrKTB-121">
          <mxGeometry relative="1" as="geometry">
            <mxPoint x="836.5" y="160" as="targetPoint" />
          </mxGeometry>
        </mxCell>
        <mxCell id="0VzW3mdC1sywO2AmrKTB-129" value="" style="group;fontFamily=FiraCode-Regular;" vertex="1" connectable="0" parent="0VzW3mdC1sywO2AmrKTB-140">
          <mxGeometry x="671.5" y="220" width="25" height="20" as="geometry" />
        </mxCell>
        <mxCell id="0VzW3mdC1sywO2AmrKTB-112" style="edgeStyle=orthogonalEdgeStyle;rounded=0;orthogonalLoop=1;jettySize=auto;html=1;startArrow=classic;startFill=1;endArrow=none;fontFamily=FiraCode-Regular;exitX=0.5;exitY=1;exitDx=0;exitDy=0;" edge="1" parent="0VzW3mdC1sywO2AmrKTB-129" source="0VzW3mdC1sywO2AmrKTB-100">
          <mxGeometry relative="1" as="geometry">
            <mxPoint x="12.5" as="targetPoint" />
            <mxPoint x="12.5" y="-55" as="sourcePoint" />
          </mxGeometry>
        </mxCell>
        <mxCell id="0VzW3mdC1sywO2AmrKTB-113" value="&lt;font&gt;&lt;font style=&quot;&quot;&gt;K∥0&lt;sup style=&quot;&quot;&gt;&lt;font style=&quot;font-size: 8px;&quot;&gt;128&lt;/font&gt;&lt;/sup&gt;&lt;/font&gt;&lt;/font&gt;" style="text;html=1;align=center;verticalAlign=middle;whiteSpace=wrap;rounded=0;fontFamily=FiraCode-Regular;" vertex="1" parent="0VzW3mdC1sywO2AmrKTB-129">
          <mxGeometry y="10" width="25" height="10" as="geometry" />
        </mxCell>
        <mxCell id="0VzW3mdC1sywO2AmrKTB-130" value="" style="group;fontFamily=FiraCode-Regular;" vertex="1" connectable="0" parent="0VzW3mdC1sywO2AmrKTB-140">
          <mxGeometry x="799" y="220" width="25" height="20" as="geometry" />
        </mxCell>
        <mxCell id="0VzW3mdC1sywO2AmrKTB-125" style="edgeStyle=orthogonalEdgeStyle;rounded=0;orthogonalLoop=1;jettySize=auto;html=1;startArrow=classic;startFill=1;endArrow=none;fontFamily=FiraCode-Regular;exitX=0.5;exitY=1;exitDx=0;exitDy=0;" edge="1" parent="0VzW3mdC1sywO2AmrKTB-130" source="0VzW3mdC1sywO2AmrKTB-121">
          <mxGeometry relative="1" as="geometry">
            <mxPoint x="12.5" as="targetPoint" />
            <mxPoint x="12.5" y="-55" as="sourcePoint" />
          </mxGeometry>
        </mxCell>
        <mxCell id="0VzW3mdC1sywO2AmrKTB-126" value="&lt;font&gt;&lt;font style=&quot;&quot;&gt;K&lt;/font&gt;&lt;/font&gt;" style="text;html=1;align=center;verticalAlign=middle;whiteSpace=wrap;rounded=0;fontFamily=FiraCode-Regular;" vertex="1" parent="0VzW3mdC1sywO2AmrKTB-130">
          <mxGeometry y="10" width="25" height="10" as="geometry" />
        </mxCell>
        <mxCell id="0VzW3mdC1sywO2AmrKTB-131" value="" style="group;fontFamily=FiraCode-Regular;fontColor=#666666;" vertex="1" connectable="0" parent="0VzW3mdC1sywO2AmrKTB-140">
          <mxGeometry x="769" y="155" width="30" height="30" as="geometry" />
        </mxCell>
        <mxCell id="0VzW3mdC1sywO2AmrKTB-132" value="&lt;font style=&quot;color: rgb(102, 102, 102);&quot;&gt;128&lt;/font&gt;" style="text;html=1;align=center;verticalAlign=middle;whiteSpace=wrap;rounded=0;fontFamily=FiraCode-Regular;" vertex="1" parent="0VzW3mdC1sywO2AmrKTB-131">
          <mxGeometry y="10" width="30" height="20" as="geometry" />
        </mxCell>
        <mxCell id="0VzW3mdC1sywO2AmrKTB-133" value="" style="endArrow=none;html=1;rounded=0;fontFamily=FiraCode-Regular;strokeWidth=1;strokeColor=#666666;endSize=7;startSize=7;jumpSize=7;exitX=0.5;exitY=0;exitDx=0;exitDy=0;" edge="1" parent="0VzW3mdC1sywO2AmrKTB-131">
          <mxGeometry width="50" height="50" relative="1" as="geometry">
            <mxPoint x="12.5" y="10" as="sourcePoint" />
            <mxPoint x="20" as="targetPoint" />
          </mxGeometry>
        </mxCell>
        <mxCell id="0VzW3mdC1sywO2AmrKTB-134" value="&lt;font&gt;&lt;font style=&quot;&quot;&gt;T&lt;/font&gt;&lt;/font&gt;" style="text;html=1;align=center;verticalAlign=middle;whiteSpace=wrap;rounded=0;fontFamily=FiraCode-Regular;" vertex="1" parent="0VzW3mdC1sywO2AmrKTB-140">
          <mxGeometry x="839" y="155" width="25" height="10" as="geometry" />
        </mxCell>
        <mxCell id="0VzW3mdC1sywO2AmrKTB-135" value="&lt;font style=&quot;color: rgb(77, 77, 77);&quot;&gt;Finalization&lt;/font&gt;" style="text;html=1;align=center;verticalAlign=middle;whiteSpace=wrap;rounded=0;fontFamily=FiraCode-Regular;fontStyle=1" vertex="1" parent="0VzW3mdC1sywO2AmrKTB-140">
          <mxGeometry x="659" y="270" width="190" height="10" as="geometry" />
        </mxCell>
      </root>
    </mxGraphModel>
  </diagram>
</mxfile>
